<mxfile host="app.diagrams.net" modified="2020-09-15T16:49:38.663Z" agent="5.0 (Windows NT 10.0; Win64; x64) AppleWebKit/537.36 (KHTML, like Gecko) Chrome/85.0.4183.102 Safari/537.36" etag="_K6MY6ZgyclPM8QkSDSf" version="13.6.10" type="github">
  <diagram id="JqKcGQJoDCqcwupZXbkY" name="Page-1">
    <mxGraphModel dx="195" dy="1638" grid="1" gridSize="10" guides="1" tooltips="1" connect="1" arrows="1" fold="1" page="1" pageScale="1" pageWidth="827" pageHeight="1169" math="0" shadow="0">
      <root>
        <mxCell id="0" />
        <mxCell id="1" parent="0" />
        <mxCell id="0xDbNC47fGg1-5seRC9q-161" value="" style="rounded=0;whiteSpace=wrap;html=1;" parent="1" vertex="1">
          <mxGeometry x="970" y="-290" width="1375" height="1000" as="geometry" />
        </mxCell>
        <mxCell id="DWUB2Uf6saMLc5BY2L6b-61" value="Consultar&amp;nbsp;" style="ellipse;whiteSpace=wrap;html=1;fillColor=#f5f5f5;strokeColor=#666666;fontColor=#333333;" parent="1" vertex="1">
          <mxGeometry x="1620" y="230" width="86" height="50" as="geometry" />
        </mxCell>
        <mxCell id="DWUB2Uf6saMLc5BY2L6b-63" value="Solicitar" style="ellipse;whiteSpace=wrap;html=1;fillColor=#f5f5f5;strokeColor=#666666;fontColor=#333333;" parent="1" vertex="1">
          <mxGeometry x="1620" y="300" width="86" height="50" as="geometry" />
        </mxCell>
        <mxCell id="0xDbNC47fGg1-5seRC9q-13" value="Admnistrador" style="shape=umlActor;verticalLabelPosition=bottom;verticalAlign=top;html=1;outlineConnect=0;" parent="1" vertex="1">
          <mxGeometry x="1020" y="375" width="30" height="60" as="geometry" />
        </mxCell>
        <mxCell id="0xDbNC47fGg1-5seRC9q-14" value="Usuario" style="shape=umlActor;verticalLabelPosition=bottom;verticalAlign=top;html=1;outlineConnect=0;" parent="1" vertex="1">
          <mxGeometry x="1170" y="200" width="30" height="60" as="geometry" />
        </mxCell>
        <mxCell id="0xDbNC47fGg1-5seRC9q-15" value="Arrendatario" style="shape=umlActor;verticalLabelPosition=bottom;verticalAlign=top;html=1;outlineConnect=0;" parent="1" vertex="1">
          <mxGeometry x="1020" y="120" width="30" height="60" as="geometry" />
        </mxCell>
        <mxCell id="0xDbNC47fGg1-5seRC9q-16" value="Prestador de servicios" style="shape=umlActor;verticalLabelPosition=bottom;verticalAlign=top;html=1;outlineConnect=0;" parent="1" vertex="1">
          <mxGeometry x="2250" y="190" width="30" height="60" as="geometry" />
        </mxCell>
        <mxCell id="0xDbNC47fGg1-5seRC9q-17" value="Visitante" style="shape=umlActor;verticalLabelPosition=bottom;verticalAlign=top;html=1;outlineConnect=0;" parent="1" vertex="1">
          <mxGeometry x="1020" y="245" width="30" height="60" as="geometry" />
        </mxCell>
        <mxCell id="0xDbNC47fGg1-5seRC9q-18" value="" style="rounded=0;whiteSpace=wrap;html=1;" parent="1" vertex="1">
          <mxGeometry x="1340" y="-230" width="810" height="880" as="geometry" />
        </mxCell>
        <mxCell id="0xDbNC47fGg1-5seRC9q-19" value="Admnistracion de unidades cerradas" style="text;html=1;strokeColor=none;fillColor=none;align=center;verticalAlign=middle;whiteSpace=wrap;rounded=0;" parent="1" vertex="1">
          <mxGeometry x="1675" y="-220" width="140" height="20" as="geometry" />
        </mxCell>
        <mxCell id="0xDbNC47fGg1-5seRC9q-20" value="Registrar usuario en la plataforma" style="ellipse;whiteSpace=wrap;html=1;fillColor=#f5f5f5;strokeColor=#666666;fontColor=#333333;" parent="1" vertex="1">
          <mxGeometry x="1480" y="-190" width="120" height="60" as="geometry" />
        </mxCell>
        <mxCell id="0xDbNC47fGg1-5seRC9q-26" value="Consultar&amp;nbsp;" style="ellipse;whiteSpace=wrap;html=1;fillColor=#f5f5f5;strokeColor=#666666;fontColor=#333333;" parent="1" vertex="1">
          <mxGeometry x="1590" y="50" width="100" height="60" as="geometry" />
        </mxCell>
        <mxCell id="0xDbNC47fGg1-5seRC9q-27" value="Solicitar" style="ellipse;whiteSpace=wrap;html=1;fillColor=#f5f5f5;strokeColor=#666666;fontColor=#333333;" parent="1" vertex="1">
          <mxGeometry x="1570" y="140" width="90" height="60" as="geometry" />
        </mxCell>
        <mxCell id="0xDbNC47fGg1-5seRC9q-31" value="" style="endArrow=classic;html=1;exitX=0.5;exitY=1;exitDx=0;exitDy=0;entryX=0.5;entryY=0;entryDx=0;entryDy=0;dashed=1;" parent="1" source="0xDbNC47fGg1-5seRC9q-20" target="0xDbNC47fGg1-5seRC9q-33" edge="1">
          <mxGeometry relative="1" as="geometry">
            <mxPoint x="1590.003593128807" y="42.953203435596144" as="sourcePoint" />
            <mxPoint x="1558" y="92.5" as="targetPoint" />
            <Array as="points" />
          </mxGeometry>
        </mxCell>
        <mxCell id="0xDbNC47fGg1-5seRC9q-32" value="&amp;lt;&amp;lt;Extend&amp;gt;&amp;gt;" style="edgeLabel;resizable=0;html=1;align=center;verticalAlign=middle;" parent="0xDbNC47fGg1-5seRC9q-31" connectable="0" vertex="1">
          <mxGeometry relative="1" as="geometry">
            <mxPoint x="-7.489999999999991" y="-5.700000000000003" as="offset" />
          </mxGeometry>
        </mxCell>
        <mxCell id="0xDbNC47fGg1-5seRC9q-33" value="Escoger tipo de usuario" style="ellipse;whiteSpace=wrap;html=1;" parent="1" vertex="1">
          <mxGeometry x="1700" y="-130" width="70" height="67.5" as="geometry" />
        </mxCell>
        <mxCell id="0xDbNC47fGg1-5seRC9q-34" value="Introducir datos de usuario" style="ellipse;whiteSpace=wrap;html=1;" parent="1" vertex="1">
          <mxGeometry x="1810" y="-37.5" width="90" height="60" as="geometry" />
        </mxCell>
        <mxCell id="0xDbNC47fGg1-5seRC9q-35" value="" style="endArrow=classic;html=1;exitX=1;exitY=0.5;exitDx=0;exitDy=0;entryX=0.322;entryY=0.046;entryDx=0;entryDy=0;entryPerimeter=0;dashed=1;" parent="1" source="0xDbNC47fGg1-5seRC9q-33" target="0xDbNC47fGg1-5seRC9q-34" edge="1">
          <mxGeometry relative="1" as="geometry">
            <mxPoint x="1490" y="172.5" as="sourcePoint" />
            <mxPoint x="1590" y="172.5" as="targetPoint" />
            <Array as="points" />
          </mxGeometry>
        </mxCell>
        <mxCell id="0xDbNC47fGg1-5seRC9q-36" value="&amp;lt;&amp;lt;Extend&amp;gt;&amp;gt;" style="edgeLabel;resizable=0;html=1;align=center;verticalAlign=middle;" parent="0xDbNC47fGg1-5seRC9q-35" connectable="0" vertex="1">
          <mxGeometry relative="1" as="geometry" />
        </mxCell>
        <mxCell id="0xDbNC47fGg1-5seRC9q-37" value="Entrar a la plataforma&amp;nbsp;" style="ellipse;whiteSpace=wrap;html=1;fillColor=#f5f5f5;strokeColor=#666666;fontColor=#333333;" parent="1" vertex="1">
          <mxGeometry x="1520" y="-35" width="100" height="67.5" as="geometry" />
        </mxCell>
        <mxCell id="0xDbNC47fGg1-5seRC9q-40" value="Publicar" style="ellipse;whiteSpace=wrap;html=1;fillColor=#f5f5f5;strokeColor=#666666;fontColor=#333333;" parent="1" vertex="1">
          <mxGeometry x="1470" y="375" width="100" height="50" as="geometry" />
        </mxCell>
        <mxCell id="0xDbNC47fGg1-5seRC9q-60" value="" style="endArrow=classic;html=1;exitX=0.5;exitY=0;exitDx=0;exitDy=0;entryX=0;entryY=0.5;entryDx=0;entryDy=0;dashed=1;" parent="1" source="0xDbNC47fGg1-5seRC9q-37" target="0xDbNC47fGg1-5seRC9q-33" edge="1">
          <mxGeometry relative="1" as="geometry">
            <mxPoint x="1570" y="197.5" as="sourcePoint" />
            <mxPoint x="1734.738069538765" y="148.45182568484415" as="targetPoint" />
          </mxGeometry>
        </mxCell>
        <mxCell id="0xDbNC47fGg1-5seRC9q-61" value="Include" style="edgeLabel;resizable=0;html=1;align=center;verticalAlign=middle;" parent="0xDbNC47fGg1-5seRC9q-60" connectable="0" vertex="1">
          <mxGeometry relative="1" as="geometry" />
        </mxCell>
        <mxCell id="0xDbNC47fGg1-5seRC9q-65" value="Reportar" style="ellipse;whiteSpace=wrap;html=1;fillColor=#f5f5f5;strokeColor=#666666;fontColor=#333333;" parent="1" vertex="1">
          <mxGeometry x="1440" y="495" width="100" height="50" as="geometry" />
        </mxCell>
        <mxCell id="0xDbNC47fGg1-5seRC9q-102" value="" style="endArrow=classic;html=1;exitX=1;exitY=0.5;exitDx=0;exitDy=0;entryX=0;entryY=0.5;entryDx=0;entryDy=0;dashed=1;" parent="1" source="0xDbNC47fGg1-5seRC9q-37" target="0xDbNC47fGg1-5seRC9q-34" edge="1">
          <mxGeometry relative="1" as="geometry">
            <mxPoint x="340" y="120" as="sourcePoint" />
            <mxPoint x="525" y="80" as="targetPoint" />
          </mxGeometry>
        </mxCell>
        <mxCell id="0xDbNC47fGg1-5seRC9q-103" value="Include" style="edgeLabel;resizable=0;html=1;align=center;verticalAlign=middle;" parent="0xDbNC47fGg1-5seRC9q-102" connectable="0" vertex="1">
          <mxGeometry relative="1" as="geometry" />
        </mxCell>
        <mxCell id="0xDbNC47fGg1-5seRC9q-112" value="" style="endArrow=classic;html=1;" parent="1" target="0xDbNC47fGg1-5seRC9q-27" edge="1">
          <mxGeometry width="50" height="50" relative="1" as="geometry">
            <mxPoint x="2250" y="210" as="sourcePoint" />
            <mxPoint x="1720" y="240" as="targetPoint" />
            <Array as="points">
              <mxPoint x="1950" y="160" />
            </Array>
          </mxGeometry>
        </mxCell>
        <mxCell id="0xDbNC47fGg1-5seRC9q-113" value="" style="endArrow=classic;html=1;exitX=0;exitY=0.3333333333333333;exitDx=0;exitDy=0;exitPerimeter=0;entryX=1;entryY=0.5;entryDx=0;entryDy=0;" parent="1" source="0xDbNC47fGg1-5seRC9q-16" target="0xDbNC47fGg1-5seRC9q-65" edge="1">
          <mxGeometry width="50" height="50" relative="1" as="geometry">
            <mxPoint x="1670" y="290" as="sourcePoint" />
            <mxPoint x="1720" y="240" as="targetPoint" />
            <Array as="points">
              <mxPoint x="2110" y="500" />
            </Array>
          </mxGeometry>
        </mxCell>
        <mxCell id="0xDbNC47fGg1-5seRC9q-115" value="Elegir tipo de consulta" style="ellipse;whiteSpace=wrap;html=1;" parent="1" vertex="1">
          <mxGeometry x="1840" y="90" width="100" height="50" as="geometry" />
        </mxCell>
        <mxCell id="0xDbNC47fGg1-5seRC9q-116" value="" style="endArrow=classic;html=1;exitX=0.98;exitY=0.65;exitDx=0;exitDy=0;entryX=0;entryY=0.5;entryDx=0;entryDy=0;exitPerimeter=0;dashed=1;" parent="1" source="0xDbNC47fGg1-5seRC9q-26" target="0xDbNC47fGg1-5seRC9q-115" edge="1">
          <mxGeometry relative="1" as="geometry">
            <mxPoint x="320" y="370" as="sourcePoint" />
            <mxPoint x="310" y="460" as="targetPoint" />
            <Array as="points" />
          </mxGeometry>
        </mxCell>
        <mxCell id="0xDbNC47fGg1-5seRC9q-117" value="&amp;lt;&amp;lt;Extend&amp;gt;&amp;gt;" style="edgeLabel;resizable=0;html=1;align=center;verticalAlign=middle;" parent="0xDbNC47fGg1-5seRC9q-116" connectable="0" vertex="1">
          <mxGeometry relative="1" as="geometry" />
        </mxCell>
        <mxCell id="0xDbNC47fGg1-5seRC9q-118" value="&lt;span&gt;Elegir tipo de solicitud&lt;/span&gt;" style="ellipse;whiteSpace=wrap;html=1;" parent="1" vertex="1">
          <mxGeometry x="1630" y="270" width="100" height="50" as="geometry" />
        </mxCell>
        <mxCell id="0xDbNC47fGg1-5seRC9q-119" value="" style="endArrow=classic;html=1;exitX=1;exitY=1;exitDx=0;exitDy=0;dashed=1;" parent="1" source="0xDbNC47fGg1-5seRC9q-27" target="0xDbNC47fGg1-5seRC9q-118" edge="1">
          <mxGeometry relative="1" as="geometry">
            <mxPoint x="430" y="-20" as="sourcePoint" />
            <mxPoint x="537.8699999999999" y="12.38000000000011" as="targetPoint" />
            <Array as="points" />
          </mxGeometry>
        </mxCell>
        <mxCell id="0xDbNC47fGg1-5seRC9q-120" value="&amp;lt;&amp;lt;Extend&amp;gt;&amp;gt;" style="edgeLabel;resizable=0;html=1;align=center;verticalAlign=middle;" parent="0xDbNC47fGg1-5seRC9q-119" connectable="0" vertex="1">
          <mxGeometry relative="1" as="geometry">
            <mxPoint x="-7.489999999999991" y="-5.700000000000003" as="offset" />
          </mxGeometry>
        </mxCell>
        <mxCell id="0xDbNC47fGg1-5seRC9q-121" value="Reservar zona común" style="ellipse;whiteSpace=wrap;html=1;" parent="1" vertex="1">
          <mxGeometry x="1840" y="260" width="110" height="60" as="geometry" />
        </mxCell>
        <mxCell id="0xDbNC47fGg1-5seRC9q-122" value="" style="endArrow=classic;html=1;exitX=1;exitY=0.5;exitDx=0;exitDy=0;entryX=0;entryY=0.5;entryDx=0;entryDy=0;dashed=1;" parent="1" source="0xDbNC47fGg1-5seRC9q-118" target="0xDbNC47fGg1-5seRC9q-121" edge="1">
          <mxGeometry relative="1" as="geometry">
            <mxPoint x="521.8000000000002" y="457.4499999999998" as="sourcePoint" />
            <mxPoint x="578.96" y="491" as="targetPoint" />
          </mxGeometry>
        </mxCell>
        <mxCell id="0xDbNC47fGg1-5seRC9q-123" value="&amp;lt;&amp;lt;Include&amp;gt;&amp;gt;" style="edgeLabel;resizable=0;html=1;align=center;verticalAlign=middle;" parent="0xDbNC47fGg1-5seRC9q-122" connectable="0" vertex="1">
          <mxGeometry relative="1" as="geometry">
            <mxPoint x="-5.640000000000001" y="-0.879999999999999" as="offset" />
          </mxGeometry>
        </mxCell>
        <mxCell id="0xDbNC47fGg1-5seRC9q-124" value="Agregar informacion" style="ellipse;whiteSpace=wrap;html=1;" parent="1" vertex="1">
          <mxGeometry x="1670" y="450" width="90" height="40" as="geometry" />
        </mxCell>
        <mxCell id="0xDbNC47fGg1-5seRC9q-125" value="" style="endArrow=classic;html=1;exitX=1;exitY=0.5;exitDx=0;exitDy=0;entryX=0;entryY=0.5;entryDx=0;entryDy=0;dashed=1;" parent="1" source="0xDbNC47fGg1-5seRC9q-40" target="0xDbNC47fGg1-5seRC9q-124" edge="1">
          <mxGeometry relative="1" as="geometry">
            <mxPoint x="1728" y="144" as="sourcePoint" />
            <mxPoint x="1860" y="175" as="targetPoint" />
            <Array as="points" />
          </mxGeometry>
        </mxCell>
        <mxCell id="0xDbNC47fGg1-5seRC9q-126" value="&amp;lt;&amp;lt;Extend&amp;gt;&amp;gt;" style="edgeLabel;resizable=0;html=1;align=center;verticalAlign=middle;" parent="0xDbNC47fGg1-5seRC9q-125" connectable="0" vertex="1">
          <mxGeometry relative="1" as="geometry" />
        </mxCell>
        <mxCell id="0xDbNC47fGg1-5seRC9q-127" value="Elegir tipo de reporte" style="ellipse;whiteSpace=wrap;html=1;" parent="1" vertex="1">
          <mxGeometry x="1580" y="545" width="100" height="70" as="geometry" />
        </mxCell>
        <mxCell id="0xDbNC47fGg1-5seRC9q-130" value="Seleccionar formato de publicación" style="ellipse;whiteSpace=wrap;html=1;" parent="1" vertex="1">
          <mxGeometry x="1870" y="400" width="110" height="50" as="geometry" />
        </mxCell>
        <mxCell id="0xDbNC47fGg1-5seRC9q-131" value="" style="endArrow=classic;html=1;exitX=1;exitY=0.5;exitDx=0;exitDy=0;entryX=0.027;entryY=0.64;entryDx=0;entryDy=0;entryPerimeter=0;dashed=1;" parent="1" source="0xDbNC47fGg1-5seRC9q-124" target="0xDbNC47fGg1-5seRC9q-130" edge="1">
          <mxGeometry relative="1" as="geometry">
            <mxPoint x="705" y="420" as="sourcePoint" />
            <mxPoint x="1878" y="475" as="targetPoint" />
          </mxGeometry>
        </mxCell>
        <mxCell id="0xDbNC47fGg1-5seRC9q-132" value="&amp;lt;&amp;lt;Include&amp;gt;&amp;gt;" style="edgeLabel;resizable=0;html=1;align=center;verticalAlign=middle;" parent="0xDbNC47fGg1-5seRC9q-131" connectable="0" vertex="1">
          <mxGeometry relative="1" as="geometry">
            <mxPoint x="-5.640000000000001" y="-0.879999999999999" as="offset" />
          </mxGeometry>
        </mxCell>
        <mxCell id="0xDbNC47fGg1-5seRC9q-133" value="Escoger zona comun" style="ellipse;whiteSpace=wrap;html=1;" parent="1" vertex="1">
          <mxGeometry x="2040" y="210" width="90" height="50" as="geometry" />
        </mxCell>
        <mxCell id="0xDbNC47fGg1-5seRC9q-134" value="" style="endArrow=classic;html=1;exitX=1;exitY=0.5;exitDx=0;exitDy=0;entryX=0;entryY=0.5;entryDx=0;entryDy=0;dashed=1;" parent="1" source="0xDbNC47fGg1-5seRC9q-121" target="0xDbNC47fGg1-5seRC9q-133" edge="1">
          <mxGeometry relative="1" as="geometry">
            <mxPoint x="1688" y="134" as="sourcePoint" />
            <mxPoint x="1840" y="180" as="targetPoint" />
            <Array as="points" />
          </mxGeometry>
        </mxCell>
        <mxCell id="0xDbNC47fGg1-5seRC9q-135" value="&amp;lt;&amp;lt;Extend&amp;gt;&amp;gt;" style="edgeLabel;resizable=0;html=1;align=center;verticalAlign=middle;" parent="0xDbNC47fGg1-5seRC9q-134" connectable="0" vertex="1">
          <mxGeometry relative="1" as="geometry" />
        </mxCell>
        <mxCell id="0xDbNC47fGg1-5seRC9q-136" value="Generar preguntas o aclaraciones&amp;nbsp;" style="ellipse;whiteSpace=wrap;html=1;" parent="1" vertex="1">
          <mxGeometry x="1480" y="250" width="100" height="70" as="geometry" />
        </mxCell>
        <mxCell id="0xDbNC47fGg1-5seRC9q-137" value="" style="endArrow=classic;html=1;exitX=0.344;exitY=1.05;exitDx=0;exitDy=0;exitPerimeter=0;dashed=1;" parent="1" source="0xDbNC47fGg1-5seRC9q-27" target="0xDbNC47fGg1-5seRC9q-136" edge="1">
          <mxGeometry relative="1" as="geometry">
            <mxPoint x="1560" y="16.25" as="sourcePoint" />
            <mxPoint x="1690" y="-58.75" as="targetPoint" />
          </mxGeometry>
        </mxCell>
        <mxCell id="0xDbNC47fGg1-5seRC9q-138" value="Include" style="edgeLabel;resizable=0;html=1;align=center;verticalAlign=middle;" parent="0xDbNC47fGg1-5seRC9q-137" connectable="0" vertex="1">
          <mxGeometry relative="1" as="geometry" />
        </mxCell>
        <mxCell id="0xDbNC47fGg1-5seRC9q-139" value="Cancelar reserva" style="ellipse;whiteSpace=wrap;html=1;" parent="1" vertex="1">
          <mxGeometry x="1740" y="180" width="100" height="60" as="geometry" />
        </mxCell>
        <mxCell id="0xDbNC47fGg1-5seRC9q-140" value="" style="endArrow=classic;html=1;exitX=1;exitY=0;exitDx=0;exitDy=0;dashed=1;" parent="1" source="0xDbNC47fGg1-5seRC9q-118" target="0xDbNC47fGg1-5seRC9q-139" edge="1">
          <mxGeometry relative="1" as="geometry">
            <mxPoint x="1740" y="315" as="sourcePoint" />
            <mxPoint x="1850" y="265" as="targetPoint" />
          </mxGeometry>
        </mxCell>
        <mxCell id="0xDbNC47fGg1-5seRC9q-141" value="&amp;lt;&amp;lt;Include&amp;gt;&amp;gt;" style="edgeLabel;resizable=0;html=1;align=center;verticalAlign=middle;" parent="0xDbNC47fGg1-5seRC9q-140" connectable="0" vertex="1">
          <mxGeometry relative="1" as="geometry">
            <mxPoint x="-5.640000000000001" y="-0.879999999999999" as="offset" />
          </mxGeometry>
        </mxCell>
        <mxCell id="0xDbNC47fGg1-5seRC9q-142" value="Agregar informacion" style="ellipse;whiteSpace=wrap;html=1;" parent="1" vertex="1">
          <mxGeometry x="1770" y="600" width="90" height="40" as="geometry" />
        </mxCell>
        <mxCell id="0xDbNC47fGg1-5seRC9q-143" value="Seleccionar formato de publicación" style="ellipse;whiteSpace=wrap;html=1;" parent="1" vertex="1">
          <mxGeometry x="1940" y="545" width="110" height="50" as="geometry" />
        </mxCell>
        <mxCell id="0xDbNC47fGg1-5seRC9q-144" value="" style="endArrow=classic;html=1;exitX=1;exitY=0.5;exitDx=0;exitDy=0;entryX=0.044;entryY=0.325;entryDx=0;entryDy=0;entryPerimeter=0;dashed=1;" parent="1" source="0xDbNC47fGg1-5seRC9q-127" target="0xDbNC47fGg1-5seRC9q-142" edge="1">
          <mxGeometry relative="1" as="geometry">
            <mxPoint x="1580" y="410" as="sourcePoint" />
            <mxPoint x="1730" y="470" as="targetPoint" />
            <Array as="points" />
          </mxGeometry>
        </mxCell>
        <mxCell id="0xDbNC47fGg1-5seRC9q-145" value="&amp;lt;&amp;lt;Extend&amp;gt;&amp;gt;" style="edgeLabel;resizable=0;html=1;align=center;verticalAlign=middle;" parent="0xDbNC47fGg1-5seRC9q-144" connectable="0" vertex="1">
          <mxGeometry relative="1" as="geometry" />
        </mxCell>
        <mxCell id="0xDbNC47fGg1-5seRC9q-146" value="" style="endArrow=classic;html=1;exitX=0.4;exitY=1;exitDx=0;exitDy=0;entryX=0;entryY=0.5;entryDx=0;entryDy=0;exitPerimeter=0;dashed=1;" parent="1" source="0xDbNC47fGg1-5seRC9q-65" target="0xDbNC47fGg1-5seRC9q-127" edge="1">
          <mxGeometry relative="1" as="geometry">
            <mxPoint x="1590" y="420" as="sourcePoint" />
            <mxPoint x="1740" y="480" as="targetPoint" />
            <Array as="points" />
          </mxGeometry>
        </mxCell>
        <mxCell id="0xDbNC47fGg1-5seRC9q-147" value="&amp;lt;&amp;lt;Extend&amp;gt;&amp;gt;" style="edgeLabel;resizable=0;html=1;align=center;verticalAlign=middle;" parent="0xDbNC47fGg1-5seRC9q-146" connectable="0" vertex="1">
          <mxGeometry relative="1" as="geometry" />
        </mxCell>
        <mxCell id="0xDbNC47fGg1-5seRC9q-148" value="" style="endArrow=classic;html=1;exitX=1;exitY=0.5;exitDx=0;exitDy=0;entryX=0;entryY=0.5;entryDx=0;entryDy=0;dashed=1;" parent="1" source="0xDbNC47fGg1-5seRC9q-142" target="0xDbNC47fGg1-5seRC9q-143" edge="1">
          <mxGeometry relative="1" as="geometry">
            <mxPoint x="1820" y="470" as="sourcePoint" />
            <mxPoint x="1908.0200000000004" y="470" as="targetPoint" />
          </mxGeometry>
        </mxCell>
        <mxCell id="0xDbNC47fGg1-5seRC9q-149" value="&amp;lt;&amp;lt;Include&amp;gt;&amp;gt;" style="edgeLabel;resizable=0;html=1;align=center;verticalAlign=middle;" parent="0xDbNC47fGg1-5seRC9q-148" connectable="0" vertex="1">
          <mxGeometry relative="1" as="geometry">
            <mxPoint x="-5.640000000000001" y="-0.879999999999999" as="offset" />
          </mxGeometry>
        </mxCell>
        <mxCell id="0xDbNC47fGg1-5seRC9q-150" value="Eliminar publicacion" style="ellipse;whiteSpace=wrap;html=1;" parent="1" vertex="1">
          <mxGeometry x="1700" y="350" width="80" height="60" as="geometry" />
        </mxCell>
        <mxCell id="0xDbNC47fGg1-5seRC9q-151" value="" style="endArrow=classic;html=1;exitX=1;exitY=0.5;exitDx=0;exitDy=0;dashed=1;" parent="1" source="0xDbNC47fGg1-5seRC9q-40" target="0xDbNC47fGg1-5seRC9q-150" edge="1">
          <mxGeometry relative="1" as="geometry">
            <mxPoint x="1580" y="410" as="sourcePoint" />
            <mxPoint x="1680" y="480" as="targetPoint" />
            <Array as="points" />
          </mxGeometry>
        </mxCell>
        <mxCell id="0xDbNC47fGg1-5seRC9q-152" value="&#xa;&#xa;&lt;span style=&quot;color: rgb(0, 0, 0); font-family: helvetica; font-size: 11px; font-style: normal; font-weight: 400; letter-spacing: normal; text-align: center; text-indent: 0px; text-transform: none; word-spacing: 0px; background-color: rgb(255, 255, 255); display: inline; float: none;&quot;&gt;&amp;lt;&amp;lt;Include&amp;gt;&amp;gt;&lt;/span&gt;&#xa;&#xa;" style="edgeLabel;resizable=0;html=1;align=center;verticalAlign=middle;" parent="0xDbNC47fGg1-5seRC9q-151" connectable="0" vertex="1">
          <mxGeometry relative="1" as="geometry">
            <mxPoint x="4.45" y="-2.29" as="offset" />
          </mxGeometry>
        </mxCell>
        <mxCell id="0xDbNC47fGg1-5seRC9q-162" value="&lt;font style=&quot;font-size: 18px&quot;&gt;&lt;b&gt;uc&lt;/b&gt; interfaz de administracion_CasosDeUso&lt;/font&gt;" style="shape=card;whiteSpace=wrap;html=1;direction=west;align=left;" parent="1" vertex="1">
          <mxGeometry x="970" y="-290" width="390" height="50" as="geometry" />
        </mxCell>
        <mxCell id="0xDbNC47fGg1-5seRC9q-164" value="Tipd de zona comun segun la unidad" style="shape=note;whiteSpace=wrap;html=1;backgroundOutline=1;darkOpacity=0.05;size=16;align=left;" parent="1" vertex="1">
          <mxGeometry x="2035" y="320" width="110" height="50" as="geometry" />
        </mxCell>
        <mxCell id="0xDbNC47fGg1-5seRC9q-165" value="" style="endArrow=none;html=1;exitX=0.5;exitY=1;exitDx=0;exitDy=0;entryX=0.5;entryY=0;entryDx=0;entryDy=0;entryPerimeter=0;" parent="1" source="0xDbNC47fGg1-5seRC9q-133" target="0xDbNC47fGg1-5seRC9q-164" edge="1">
          <mxGeometry width="50" height="50" relative="1" as="geometry">
            <mxPoint x="1710" y="340" as="sourcePoint" />
            <mxPoint x="1760" y="290" as="targetPoint" />
          </mxGeometry>
        </mxCell>
        <mxCell id="0xDbNC47fGg1-5seRC9q-166" value="" style="endArrow=none;html=1;entryX=0;entryY=0.5;entryDx=0;entryDy=0;exitX=1;exitY=0.3333333333333333;exitDx=0;exitDy=0;exitPerimeter=0;" parent="1" source="0xDbNC47fGg1-5seRC9q-14" target="0xDbNC47fGg1-5seRC9q-20" edge="1">
          <mxGeometry width="50" height="50" relative="1" as="geometry">
            <mxPoint x="1410" y="240" as="sourcePoint" />
            <mxPoint x="1680" as="targetPoint" />
            <Array as="points">
              <mxPoint x="1370" y="-20" />
            </Array>
          </mxGeometry>
        </mxCell>
        <mxCell id="0xDbNC47fGg1-5seRC9q-168" value="" style="endArrow=none;html=1;entryX=0;entryY=1;entryDx=0;entryDy=0;exitX=1;exitY=0.3333333333333333;exitDx=0;exitDy=0;exitPerimeter=0;" parent="1" source="0xDbNC47fGg1-5seRC9q-14" target="0xDbNC47fGg1-5seRC9q-37" edge="1">
          <mxGeometry width="50" height="50" relative="1" as="geometry">
            <mxPoint x="1410" y="240" as="sourcePoint" />
            <mxPoint x="1500" y="-140" as="targetPoint" />
            <Array as="points">
              <mxPoint x="1420" y="80" />
            </Array>
          </mxGeometry>
        </mxCell>
        <mxCell id="0xDbNC47fGg1-5seRC9q-169" value="" style="endArrow=none;html=1;entryX=0.007;entryY=0.667;entryDx=0;entryDy=0;entryPerimeter=0;exitX=1;exitY=0.3333333333333333;exitDx=0;exitDy=0;exitPerimeter=0;" parent="1" source="0xDbNC47fGg1-5seRC9q-14" target="0xDbNC47fGg1-5seRC9q-26" edge="1">
          <mxGeometry width="50" height="50" relative="1" as="geometry">
            <mxPoint x="1410" y="240" as="sourcePoint" />
            <mxPoint x="1680" y="140" as="targetPoint" />
          </mxGeometry>
        </mxCell>
        <mxCell id="0xDbNC47fGg1-5seRC9q-170" value="" style="endArrow=none;html=1;entryX=0.042;entryY=0.663;entryDx=0;entryDy=0;entryPerimeter=0;exitX=1;exitY=0.3333333333333333;exitDx=0;exitDy=0;exitPerimeter=0;" parent="1" source="0xDbNC47fGg1-5seRC9q-14" target="0xDbNC47fGg1-5seRC9q-27" edge="1">
          <mxGeometry width="50" height="50" relative="1" as="geometry">
            <mxPoint x="1220" y="40" as="sourcePoint" />
            <mxPoint x="1680" y="270" as="targetPoint" />
          </mxGeometry>
        </mxCell>
        <mxCell id="0xDbNC47fGg1-5seRC9q-171" value="" style="endArrow=none;html=1;entryX=0;entryY=0;entryDx=0;entryDy=0;exitX=1;exitY=0.3333333333333333;exitDx=0;exitDy=0;exitPerimeter=0;" parent="1" source="0xDbNC47fGg1-5seRC9q-14" target="0xDbNC47fGg1-5seRC9q-40" edge="1">
          <mxGeometry width="50" height="50" relative="1" as="geometry">
            <mxPoint x="1200" y="30" as="sourcePoint" />
            <mxPoint x="1680" y="270" as="targetPoint" />
          </mxGeometry>
        </mxCell>
        <mxCell id="0xDbNC47fGg1-5seRC9q-172" value="" style="endArrow=none;html=1;entryX=0;entryY=0;entryDx=0;entryDy=0;exitX=1;exitY=0.3333333333333333;exitDx=0;exitDy=0;exitPerimeter=0;" parent="1" source="0xDbNC47fGg1-5seRC9q-14" target="0xDbNC47fGg1-5seRC9q-65" edge="1">
          <mxGeometry width="50" height="50" relative="1" as="geometry">
            <mxPoint x="1210" y="30" as="sourcePoint" />
            <mxPoint x="1680" y="400" as="targetPoint" />
          </mxGeometry>
        </mxCell>
        <mxCell id="0xDbNC47fGg1-5seRC9q-173" value="" style="endArrow=none;html=1;exitX=1;exitY=0.5;exitDx=0;exitDy=0;" parent="1" source="0xDbNC47fGg1-5seRC9q-20" edge="1">
          <mxGeometry width="50" height="50" relative="1" as="geometry">
            <mxPoint x="1630" y="50" as="sourcePoint" />
            <mxPoint x="2250" y="210" as="targetPoint" />
            <Array as="points">
              <mxPoint x="1960" y="-160" />
            </Array>
          </mxGeometry>
        </mxCell>
        <mxCell id="0xDbNC47fGg1-5seRC9q-174" value="" style="endArrow=none;html=1;entryX=1;entryY=0.5;entryDx=0;entryDy=0;" parent="1" target="0xDbNC47fGg1-5seRC9q-26" edge="1">
          <mxGeometry width="50" height="50" relative="1" as="geometry">
            <mxPoint x="2250" y="210" as="sourcePoint" />
            <mxPoint x="1850" y="140" as="targetPoint" />
            <Array as="points">
              <mxPoint x="2000" y="80" />
            </Array>
          </mxGeometry>
        </mxCell>
        <mxCell id="0xDbNC47fGg1-5seRC9q-175" value="" style="endArrow=none;html=1;exitX=0.5;exitY=1;exitDx=0;exitDy=0;entryX=0;entryY=0.3333333333333333;entryDx=0;entryDy=0;entryPerimeter=0;" parent="1" source="0xDbNC47fGg1-5seRC9q-37" target="0xDbNC47fGg1-5seRC9q-16" edge="1">
          <mxGeometry width="50" height="50" relative="1" as="geometry">
            <mxPoint x="1800" y="190" as="sourcePoint" />
            <mxPoint x="2000" y="80" as="targetPoint" />
            <Array as="points">
              <mxPoint x="1940" y="40" />
            </Array>
          </mxGeometry>
        </mxCell>
        <mxCell id="0xDbNC47fGg1-5seRC9q-181" value="" style="endArrow=none;dashed=1;html=1;exitX=1.006;exitY=0.147;exitDx=0;exitDy=0;exitPerimeter=0;strokeColor=none;" parent="1" source="0xDbNC47fGg1-5seRC9q-18" edge="1">
          <mxGeometry width="50" height="50" relative="1" as="geometry">
            <mxPoint x="1800" y="50" as="sourcePoint" />
            <mxPoint x="1850" as="targetPoint" />
          </mxGeometry>
        </mxCell>
        <mxCell id="0xDbNC47fGg1-5seRC9q-184" value="Propietario" style="shape=umlActor;verticalLabelPosition=bottom;verticalAlign=top;html=1;outlineConnect=0;" parent="1" vertex="1">
          <mxGeometry x="1020" y="-10" width="30" height="60" as="geometry" />
        </mxCell>
        <mxCell id="0xDbNC47fGg1-5seRC9q-185" value="" style="endArrow=none;html=1;exitX=1;exitY=0.3333333333333333;exitDx=0;exitDy=0;exitPerimeter=0;" parent="1" source="0xDbNC47fGg1-5seRC9q-184" edge="1">
          <mxGeometry width="50" height="50" relative="1" as="geometry">
            <mxPoint x="1350" y="260" as="sourcePoint" />
            <mxPoint x="1080" y="10" as="targetPoint" />
          </mxGeometry>
        </mxCell>
        <mxCell id="0xDbNC47fGg1-5seRC9q-186" value="" style="endArrow=none;html=1;" parent="1" edge="1">
          <mxGeometry width="50" height="50" relative="1" as="geometry">
            <mxPoint x="1080" y="10" as="sourcePoint" />
            <mxPoint x="1080" y="400" as="targetPoint" />
          </mxGeometry>
        </mxCell>
        <mxCell id="0xDbNC47fGg1-5seRC9q-187" value="" style="endArrow=none;html=1;exitX=1;exitY=0.3333333333333333;exitDx=0;exitDy=0;exitPerimeter=0;" parent="1" source="0xDbNC47fGg1-5seRC9q-13" edge="1">
          <mxGeometry width="50" height="50" relative="1" as="geometry">
            <mxPoint x="1350" y="260" as="sourcePoint" />
            <mxPoint x="1080" y="395" as="targetPoint" />
          </mxGeometry>
        </mxCell>
        <mxCell id="0xDbNC47fGg1-5seRC9q-188" value="" style="endArrow=none;html=1;exitX=1;exitY=0.3333333333333333;exitDx=0;exitDy=0;exitPerimeter=0;" parent="1" source="0xDbNC47fGg1-5seRC9q-15" edge="1">
          <mxGeometry width="50" height="50" relative="1" as="geometry">
            <mxPoint x="1350" y="260" as="sourcePoint" />
            <mxPoint x="1080" y="140" as="targetPoint" />
          </mxGeometry>
        </mxCell>
        <mxCell id="0xDbNC47fGg1-5seRC9q-189" value="" style="endArrow=none;html=1;exitX=1;exitY=0.3333333333333333;exitDx=0;exitDy=0;exitPerimeter=0;" parent="1" source="0xDbNC47fGg1-5seRC9q-17" edge="1">
          <mxGeometry width="50" height="50" relative="1" as="geometry">
            <mxPoint x="1350" y="260" as="sourcePoint" />
            <mxPoint x="1080" y="265" as="targetPoint" />
          </mxGeometry>
        </mxCell>
        <mxCell id="0xDbNC47fGg1-5seRC9q-190" value="" style="endArrow=classic;html=1;entryX=0;entryY=0.3333333333333333;entryDx=0;entryDy=0;entryPerimeter=0;" parent="1" target="0xDbNC47fGg1-5seRC9q-14" edge="1">
          <mxGeometry width="50" height="50" relative="1" as="geometry">
            <mxPoint x="1080" y="220" as="sourcePoint" />
            <mxPoint x="1190" y="200" as="targetPoint" />
          </mxGeometry>
        </mxCell>
      </root>
    </mxGraphModel>
  </diagram>
</mxfile>
